<?xml version="1.0" encoding="utf-8"?>
<!-- Generator: Adobe Illustrator 24.1.3, SVG Export Plug-In . SVG Version: 6.00 Build 0)  -->
<svg version="1.1" id="Calque_1" xmlns="http://www.w3.org/2000/svg" xmlns:xlink="http://www.w3.org/1999/xlink" x="0px" y="0px"
	 viewBox="0 0 512 512" style="enable-background:new 0 0 512 512;" xml:space="preserve">
<style type="text/css">
	.st0{fill:#0071BC;}
</style>
<g>
	<path d="M482,264.39c-23.79,0-27.13,13.07-27.13,24.8c0,9.37,1.34,18.76,2.67,28.14c1.34,9.39,2.69,18.43,2.69,27.81
		c0,30.82-20.11,43.88-48.59,43.88h-7.04V370.6h6.03c19.78,0,26.48-10.72,26.48-28.81c0-7.71-1.01-15.74-2.35-23.79
		c-1.34-8.38-2.35-16.41-2.35-25.47c-0.34-21.44,9.04-32.17,24.12-36.18v-0.68c-15.07-3.68-24.46-15.07-24.12-36.52
		c0-9.04,1.01-17.42,2.35-25.47c1.34-8.38,2.35-16.08,2.35-24.12c0-18.77-7.71-29.15-26.48-29.15h-6.03v-18.43h7.04
		c27.81,0,48.59,12.06,48.59,45.9c0,9.04-1.35,18.43-2.69,27.47c-1.34,9.04-2.67,18.1-2.67,27.15c0,10.38,3.34,24.79,27.13,24.79
		V264.39z"/>
</g>
<g>
	<path d="M29.37,246.63c23.79,0,27.13-13.07,27.13-24.8c0-9.37-1.34-18.76-2.67-28.14c-1.34-9.39-2.69-18.43-2.69-27.81
		c0-30.82,20.11-43.88,48.59-43.88h7.04v18.43h-6.03c-19.78,0-26.48,10.72-26.48,28.81c0,7.71,1.01,15.74,2.35,23.79
		c1.34,8.38,2.35,16.41,2.35,25.47c0.34,21.44-9.04,32.17-24.12,36.18v0.68c15.07,3.68,24.46,15.07,24.12,36.52
		c0,9.04-1.01,17.42-2.35,25.47c-1.34,8.38-2.35,16.08-2.35,24.12c0,18.77,7.71,29.15,26.48,29.15h6.03v18.43h-7.04
		c-27.81,0-48.59-12.06-48.59-45.9c0-9.04,1.35-18.43,2.69-27.47c1.34-9.04,2.67-18.1,2.67-27.15c0-10.38-3.34-24.79-27.13-24.79
		V246.63z"/>
</g>
<g>
	<g>
		<path class="st0" d="M129.18,155.05h69.25v22.27h-6.27c-0.94-3.67-1.87-6.57-2.78-8.7c-0.92-2.14-1.89-3.76-2.91-4.86
			c-1.03-1.11-2.13-1.9-3.3-2.37c-1.18-0.47-2.94-0.7-5.28-0.7h-8.13v65.54c0,2.52,0.14,4.52,0.41,6.01
			c0.28,1.49,0.7,2.68,1.28,3.55c0.57,0.88,1.35,1.56,2.33,2.05c0.98,0.49,2.52,0.97,4.61,1.44v3.13h-29.25v-3.13
			c1.28-0.3,2.41-0.62,3.39-0.96c0.98-0.34,1.78-0.76,2.4-1.24c0.62-0.49,1.13-1.12,1.54-1.89c0.4-0.77,0.72-1.81,0.96-3.13
			c0.23-1.33,0.35-3.26,0.35-5.82v-65.54h-8.07c-2.01,0-3.66,0.19-4.96,0.57c-1.3,0.39-2.51,1.19-3.62,2.4
			c-1.11,1.22-2.12,2.95-3.04,5.18c-0.92,2.24-1.78,5.07-2.59,8.48h-6.34V155.05z"/>
		<path class="st0" d="M221.66,191.85l0.89,0.19c2.35-2.86,4.52-5.11,6.53-6.75c2.01-1.64,4.17-2.91,6.5-3.81
			c2.32-0.9,4.96-1.35,7.9-1.35c2.47,0,4.72,0.13,6.72,0.39v14.72h-7.23c-1.02-2.3-2.11-3.98-3.26-5.02
			c-1.15-1.05-2.73-1.57-4.73-1.57c-1.54,0-3.06,0.45-4.58,1.34c-1.52,0.9-2.98,2.2-4.39,3.91c-1.41,1.71-2.38,3.31-2.91,4.8
			c-0.53,1.49-0.8,3.26-0.8,5.31v22.4c0,3.89,0.24,6.56,0.7,8.03c0.47,1.48,1.25,2.55,2.34,3.24c1.09,0.68,2.72,1.22,4.89,1.6v3.13
			h-25.79v-3.13c1.62-0.52,2.78-0.96,3.49-1.35c0.7-0.39,1.31-0.92,1.83-1.6c0.51-0.68,0.89-1.73,1.15-3.13
			c0.26-1.41,0.38-3.61,0.38-6.6v-27.9c0-2.73-0.04-4.93-0.13-6.6c-0.09-1.66-0.39-2.99-0.9-4s-1.29-1.75-2.34-2.24
			c-1.05-0.49-2.53-0.91-4.45-1.25v-3.33l14.98-0.64h3.91L221.66,191.85z"/>
		<path class="st0" d="M293.34,233.26l-0.96-0.26c-3.71,3.79-7.2,6.48-10.46,8.06c-3.26,1.58-6.73,2.37-10.4,2.37
			c-3.24,0-6.1-0.63-8.58-1.89c-2.47-1.26-4.37-3.03-5.7-5.31c-1.32-2.28-1.98-4.92-1.98-7.9c0-6.23,3.08-11.04,9.25-14.44
			c6.17-3.39,15.41-5.36,27.74-5.92v-4.16c0-4.44-0.42-7.94-1.28-10.5c-0.85-2.56-2.2-4.44-4.03-5.63c-1.84-1.2-4.29-1.79-7.36-1.79
			c-3.33,0-6.01,0.87-8.03,2.62c-2.03,1.75-3.55,4.37-4.58,7.87h-8.38v-8.32c4.1-2.13,7.51-3.7,10.24-4.7
			c2.73-1,5.46-1.79,8.19-2.37c2.73-0.57,5.51-0.86,8.32-0.86c4.22,0,7.61,0.68,10.17,2.02c2.56,1.35,4.48,3.4,5.76,6.18
			c1.28,2.78,1.92,6.96,1.92,12.55v22.27c0,3.16,0.02,5.39,0.07,6.69c0.04,1.3,0.17,2.51,0.38,3.62s0.54,1.99,0.96,2.65
			c0.43,0.67,1.06,1.23,1.89,1.7c0.83,0.47,2.18,0.96,4.06,1.48v3.13h-17.54L293.34,233.26z M292.25,213.23
			c-8.66,0.09-15.14,1.24-19.45,3.46c-4.31,2.22-6.47,5.57-6.47,10.05c0,2.43,0.49,4.35,1.48,5.76c0.98,1.41,2.22,2.38,3.71,2.91
			c1.49,0.54,3.26,0.8,5.31,0.8c2.9,0,5.54-0.7,7.91-2.11c2.37-1.41,4.21-3.2,5.54-5.38c1.32-2.17,1.98-4.33,1.98-6.46V213.23z"/>
		<path class="st0" d="M363.55,172.84c0-4.1-0.03-6.95-0.1-8.58c-0.06-1.62-0.24-2.99-0.51-4.13c-0.28-1.13-0.67-2.02-1.15-2.66
			c-0.49-0.64-1.15-1.15-1.99-1.53c-0.83-0.39-2.33-0.77-4.51-1.15v-3.33l15.49-0.64h3.78v74.11c0,3.33,0.06,5.71,0.19,7.14
			c0.13,1.43,0.4,2.57,0.83,3.42c0.43,0.86,1.1,1.55,2.02,2.08c0.92,0.54,2.53,1.03,4.84,1.5v3.33l-15.11,0.64h-3.84l0.77-10.5
			l-0.96-0.26c-2.69,2.86-5.02,5-7.01,6.43c-1.98,1.43-4.09,2.57-6.34,3.42s-4.64,1.28-7.2,1.28c-7,0-12.4-2.65-16.2-7.97
			s-5.69-12.98-5.69-23.01c0-7,1.23-12.94,3.71-17.83c2.47-4.88,5.81-8.52,10.01-10.91c4.2-2.39,8.93-3.59,14.18-3.59
			c2.82,0,5.38,0.23,7.68,0.68c2.3,0.44,4.67,1.18,7.11,2.21V172.84z M363.55,204.46c0-3.33-0.15-5.99-0.45-8
			c-0.3-2.01-0.8-3.69-1.5-5.06c-0.7-1.36-1.65-2.52-2.85-3.45c-1.2-0.94-2.51-1.62-3.93-2.05c-1.43-0.42-3.15-0.64-5.15-0.64
			c-5.46,0-9.62,2.19-12.48,6.56c-2.86,4.37-4.29,10.66-4.29,18.85c0,8.19,1.18,14.42,3.52,18.69c2.35,4.27,5.91,6.4,10.69,6.4
			c1.88,0,3.43-0.16,4.67-0.48c1.24-0.32,2.45-0.83,3.65-1.54c1.2-0.7,2.41-1.67,3.65-2.91c1.23-1.23,2.14-2.37,2.72-3.39
			c0.57-1.03,1.01-2.2,1.31-3.52c0.3-1.32,0.45-3.03,0.45-5.12V204.46z"/>
	</g>
	<g>
		<path d="M139.21,271.8h69.25v22.27h-6.27c-0.94-3.67-1.87-6.57-2.78-8.7c-0.92-2.14-1.89-3.76-2.91-4.86
			c-1.03-1.11-2.13-1.9-3.3-2.37c-1.18-0.47-2.94-0.7-5.28-0.7h-8.13v65.54c0,2.52,0.14,4.52,0.41,6.01
			c0.28,1.49,0.7,2.68,1.28,3.55c0.57,0.88,1.35,1.56,2.33,2.05c0.98,0.49,2.52,0.97,4.61,1.44v3.13h-29.25v-3.13
			c1.28-0.3,2.41-0.62,3.39-0.96c0.98-0.34,1.78-0.76,2.4-1.24c0.62-0.49,1.13-1.12,1.54-1.89c0.41-0.77,0.72-1.81,0.96-3.13
			c0.23-1.33,0.35-3.26,0.35-5.82v-65.54h-8.07c-2.01,0-3.66,0.19-4.96,0.57c-1.3,0.39-2.51,1.19-3.62,2.4
			c-1.11,1.22-2.12,2.95-3.04,5.18c-0.92,2.24-1.78,5.07-2.59,8.48h-6.34V271.8z"/>
		<path d="M236.11,360.19c-8.88,0-15.65-2.61-20.32-7.84c-4.67-5.23-7.01-12.96-7.01-23.2c0-7.04,1.22-12.99,3.68-17.85
			c2.45-4.86,5.81-8.48,10.08-10.85c4.27-2.37,9.13-3.55,14.59-3.55c9.13,0,16.05,2.66,20.74,7.97c4.69,5.31,7.04,12.94,7.04,22.88
			c0,7.08-1.17,13.06-3.52,17.92c-2.35,4.86-5.67,8.51-9.99,10.91C247.09,358.98,242,360.19,236.11,360.19z M220.88,327.8
			c0,8.79,1.39,15.54,4.19,20.26c2.8,4.72,6.79,7.07,12,7.07c2.86,0,5.29-0.69,7.29-2.08c2.01-1.38,3.64-3.25,4.9-5.6
			c1.26-2.35,2.16-5.07,2.72-8.16c0.55-3.09,0.83-6.33,0.83-9.7c0-6.27-0.69-11.48-2.08-15.62c-1.39-4.14-3.27-7.17-5.67-9.12
			c-2.39-1.94-5.12-2.91-8.19-2.91c-5.16,0-9.12,2.24-11.87,6.72C222.25,313.15,220.88,319.53,220.88,327.8z"/>
		<path d="M305.68,360.19c-8.88,0-15.65-2.61-20.32-7.84c-4.67-5.23-7.01-12.96-7.01-23.2c0-7.04,1.22-12.99,3.68-17.85
			c2.45-4.86,5.81-8.48,10.08-10.85c4.27-2.37,9.13-3.55,14.59-3.55c9.13,0,16.05,2.66,20.74,7.97c4.69,5.31,7.04,12.94,7.04,22.88
			c0,7.08-1.17,13.06-3.52,17.92c-2.35,4.86-5.67,8.51-9.99,10.91C316.66,358.98,311.56,360.19,305.68,360.19z M290.45,327.8
			c0,8.79,1.39,15.54,4.19,20.26c2.8,4.72,6.79,7.07,12,7.07c2.86,0,5.29-0.69,7.29-2.08c2.01-1.38,3.64-3.25,4.9-5.6
			c1.26-2.35,2.16-5.07,2.72-8.16c0.55-3.09,0.83-6.33,0.83-9.7c0-6.27-0.69-11.48-2.08-15.62c-1.39-4.14-3.27-7.17-5.67-9.12
			c-2.39-1.94-5.12-2.91-8.19-2.91c-5.16,0-9.12,2.24-11.87,6.72C291.82,313.15,290.45,319.53,290.45,327.8z"/>
		<path d="M364.5,343.16c0,3.67,0.17,6.22,0.51,7.65c0.34,1.43,0.99,2.52,1.95,3.26c0.96,0.75,2.53,1.4,4.71,1.95v3.13h-25.41v-3.13
			c2.13-0.55,3.62-1.13,4.45-1.73c0.83-0.6,1.43-1.31,1.79-2.15c0.36-0.83,0.62-1.96,0.77-3.39c0.15-1.43,0.23-3.3,0.23-5.6v-53.57
			c0-4.1-0.03-6.95-0.1-8.58c-0.07-1.62-0.24-2.99-0.51-4.13c-0.28-1.13-0.67-2.02-1.15-2.66c-0.49-0.64-1.15-1.15-1.99-1.53
			c-0.83-0.39-2.33-0.77-4.51-1.15v-3.33l15.42-0.64h3.84V343.16z"/>
	</g>
</g>
</svg>
